<svg width="28" height="25" viewBox="0 0 28 25" fill="none" xmlns="http://www.w3.org/2000/svg">
<g clip-path="url(#clip0_276_1376)" filter="url(#filter0_d_276_1376)">
<path d="M2 8.66669H26V15.3334H2V8.66669Z" fill="#E00034"/>
<path d="M23.3333 3.33331H4.66667C3.95942 3.33331 3.28115 3.61426 2.78105 4.11436C2.28095 4.61446 2 5.29274 2 5.99998L2 8.66665H26V5.99998C26 5.29274 25.719 4.61446 25.219 4.11436C24.7189 3.61426 24.0406 3.33331 23.3333 3.33331Z" fill="#0098C3"/>
<path d="M13.896 14.222C13.5257 14.222 13.1613 14.1295 12.8359 13.9529C12.5104 13.7763 12.2343 13.5211 12.0326 13.2106C11.8308 12.9001 11.7099 12.5442 11.6807 12.175C11.6515 11.8059 11.7151 11.4353 11.8655 11.097C12.016 10.7587 12.2486 10.4633 12.5423 10.2378C12.8359 10.0122 13.1813 9.86365 13.547 9.80553C13.9126 9.7474 14.2871 9.78157 14.6362 9.90495C14.9853 10.0283 15.298 10.237 15.546 10.512C15.227 10.0379 14.7642 9.67873 14.2257 9.48752C13.6872 9.29631 13.1016 9.28314 12.555 9.44994C12.0085 9.61673 11.53 9.95468 11.19 10.414C10.8501 10.8733 10.6666 11.4296 10.6667 12.0011C10.6669 12.5725 10.8506 13.1288 11.1907 13.5879C11.5309 14.0471 12.0095 14.3848 12.5562 14.5513C13.1028 14.7179 13.6884 14.7045 14.2268 14.513C14.7652 14.3216 15.2279 13.9622 15.5467 13.488C15.3385 13.7193 15.0839 13.9043 14.7995 14.0308C14.5151 14.1572 14.2072 14.2224 13.896 14.222Z" fill="#FCFCFC"/>
<path d="M17.778 11.9986L16.9806 11.7159L17.3433 10.9519L16.5793 11.3153L16.2953 10.5186L16.0126 11.3159L16.0106 11.3146L15.248 10.9533L15.612 11.7173L14.8146 12.0013L15.612 12.2839L15.2493 13.0479L16.01 12.6859L16.0133 12.6846L16.2973 13.4813L16.58 12.6839L17.3446 13.0466L16.9806 12.2826L17.778 11.9986Z" fill="#FCFCFC"/>
<path d="M4.66667 20.6666H23.3333C24.0406 20.6666 24.7189 20.3857 25.219 19.8856C25.719 19.3855 26 18.7072 26 18V15.3333H2V18C2 18.7072 2.28095 19.3855 2.78105 19.8856C3.28115 20.3857 3.95942 20.6666 4.66667 20.6666Z" fill="#00AE65"/>
</g>
<defs>
<filter id="filter0_d_276_1376" x="0" y="0" width="28" height="28" filterUnits="userSpaceOnUse" color-interpolation-filters="sRGB">
<feFlood flood-opacity="0" result="BackgroundImageFix"/>
<feColorMatrix in="SourceAlpha" type="matrix" values="0 0 0 0 0 0 0 0 0 0 0 0 0 0 0 0 0 0 127 0" result="hardAlpha"/>
<feOffset dy="2"/>
<feGaussianBlur stdDeviation="1"/>
<feComposite in2="hardAlpha" operator="out"/>
<feColorMatrix type="matrix" values="0 0 0 0 0 0 0 0 0 0 0 0 0 0 0 0 0 0 0.1 0"/>
<feBlend mode="normal" in2="BackgroundImageFix" result="effect1_dropShadow_276_1376"/>
<feBlend mode="normal" in="SourceGraphic" in2="effect1_dropShadow_276_1376" result="shape"/>
</filter>
<clipPath id="clip0_276_1376">
<rect width="24" height="24" fill="white" transform="translate(2)"/>
</clipPath>
</defs>
</svg>
