<svg width="21" height="20" viewBox="0 0 21 20" fill="none" xmlns="http://www.w3.org/2000/svg">
<g clip-path="url(#clip0_65_472)">
<path d="M4.15188 0C2.1289 0 0.5 1.6289 0.5 3.65188V16.3481C0.5 18.3711 2.1289 20 4.15188 20H11.0331V12.1813H8.96564V9.36626H11.0331V6.96126C11.0331 5.07176 12.2547 3.33688 15.0688 3.33688C16.2081 3.33688 17.0506 3.44626 17.0506 3.44626L16.9844 6.07502C16.9844 6.07502 16.1251 6.0669 15.1875 6.0669C14.1727 6.0669 14.01 6.53446 14.01 7.31066V9.36628H17.065L16.9319 12.1813H14.01V20H16.8481C18.8711 20 20.5 18.3711 20.5 16.3482V3.6519C20.5 1.62892 18.8711 2e-05 16.8481 2e-05H4.15186L4.15188 0Z" fill="white"/>
</g>
<defs>
<clipPath id="clip0_65_472">
<rect width="20" height="20" fill="white" transform="translate(0.5)"/>
</clipPath>
</defs>
</svg>
