<svg width="21" height="22" viewBox="0 0 21 22" fill="none" xmlns="http://www.w3.org/2000/svg">
<g clip-path="url(#clip0_1_460)">
<path d="M20.4905 11.1915C20.4905 10.3529 20.4224 9.74094 20.2752 9.10633H10.6992V12.8913H16.3201C16.2068 13.832 15.5948 15.2485 14.2349 16.2004L14.2159 16.3271L17.2436 18.6727L17.4534 18.6936C19.3798 16.9144 20.4905 14.2966 20.4905 11.1915Z" fill="#4285F4"/>
<path d="M10.6992 21.1641C13.453 21.1641 15.7648 20.2574 17.4534 18.6936L14.2349 16.2004C13.3737 16.801 12.2177 17.2203 10.6992 17.2203C8.00211 17.2203 5.71297 15.4412 4.89695 12.982L4.77734 12.9922L1.62906 15.4287L1.58789 15.5431C3.26508 18.8748 6.71016 21.1641 10.6992 21.1641Z" fill="#34A853"/>
<path d="M4.89695 12.982C4.68164 12.3474 4.55703 11.6674 4.55703 10.9648C4.55703 10.2622 4.68164 9.58227 4.88562 8.94766L4.87992 8.8125L1.69219 6.33688L1.58789 6.38649C0.896641 7.76906 0.5 9.32164 0.5 10.9648C0.5 12.608 0.896641 14.1605 1.58789 15.5431L4.89695 12.982Z" fill="#FBBC05"/>
<path d="M10.6992 4.7093C12.6144 4.7093 13.9062 5.53656 14.6429 6.22789L17.5213 3.41742C15.7535 1.77422 13.453 0.765625 10.6992 0.765625C6.71016 0.765625 3.26508 3.05477 1.58789 6.38648L4.88563 8.94766C5.71297 6.48852 8.00211 4.7093 10.6992 4.7093Z" fill="#EB4335"/>
</g>
<defs>
<clipPath id="clip0_1_460">
<rect width="20" height="20.4688" fill="white" transform="translate(0.5 0.765625)"/>
</clipPath>
</defs>
</svg>
