<svg width="20" height="20" viewBox="0 0 20 20" fill="none" xmlns="http://www.w3.org/2000/svg">
<path d="M18.3156 12.3063C16.8431 12.7192 15.2872 12.7327 13.8078 12.3455C12.3283 11.9582 10.9786 11.1842 9.89721 10.1028C8.81583 9.02141 8.04178 7.67169 7.65454 6.19222C7.2673 4.71276 7.28083 3.15689 7.69374 1.68439C6.24199 2.08846 4.92144 2.86584 3.86363 3.93911C2.80581 5.01237 2.04765 6.34405 1.66467 7.80151C1.28168 9.25896 1.28724 10.7913 1.68078 12.246C2.07432 13.7006 2.84211 15.0268 3.90767 16.0923C4.97324 17.1579 6.29939 17.9257 7.75403 18.3192C9.20868 18.7128 10.741 18.7183 12.1985 18.3353C13.656 17.9523 14.9876 17.1942 16.0609 16.1364C17.1342 15.0786 17.9115 13.758 18.3156 12.3063V12.3063Z" stroke="#2D3131" stroke-width="1.5" stroke-linecap="round" stroke-linejoin="round"/>
</svg>
