<svg width="12" height="12" viewBox="0 0 12 12" fill="none" xmlns="http://www.w3.org/2000/svg">
<path fill-rule="evenodd" clip-rule="evenodd" d="M0.645778 7.27717L7.10615 0.944422C7.93734 0.129651 9.2855 0.129651 10.1167 0.944422L10.9796 1.79027C11.8108 2.60505 11.8108 3.92657 10.9796 4.74135L4.49374 11.0991C4.12287 11.4626 3.62005 11.6666 3.09521 11.6666H0.439027C0.192276 11.6666 -0.00601015 11.4673 0.000139266 11.2255L0.0669543 8.59831C0.0802383 8.10176 0.287513 7.62836 0.645778 7.27717ZM10.3587 2.39888L9.49582 1.55303C9.00753 1.07439 8.21532 1.07439 7.72702 1.55303L7.22549 2.04466L9.85746 4.62409L10.3587 4.13274C10.847 3.65409 10.847 2.87753 10.3587 2.39888ZM1.26665 7.88578L6.60461 2.65327L9.23659 5.2327L3.87286 10.4905L3.80152 10.5545C3.60447 10.7163 3.35481 10.8059 3.09521 10.8059L0.888967 10.8056L0.944716 8.62032C0.952092 8.34459 1.06751 8.08099 1.26665 7.88578ZM12 11.2363C12 10.9986 11.8034 10.806 11.561 10.806H6.98066L6.92109 10.8099C6.7068 10.8384 6.54164 11.0185 6.54164 11.2363C6.54164 11.474 6.73819 11.6667 6.98066 11.6667H11.561L11.6205 11.6627C11.8348 11.6343 12 11.4542 12 11.2363Z" fill="#171923"/>
</svg>
