<svg width="98" height="19" viewBox="0 0 98 19" fill="none" xmlns="http://www.w3.org/2000/svg">
<path d="M9.104 18.24C7.792 18.24 6.584 18.032 5.48 17.616C4.392 17.184 3.44 16.584 2.624 15.816C1.808 15.032 1.176 14.112 0.728 13.056C0.28 12 0.0560001 10.848 0.0560001 9.6C0.0560001 8.352 0.28 7.2 0.728 6.144C1.176 5.088 1.808 4.176 2.624 3.408C3.456 2.624 4.424 2.024 5.528 1.608C6.632 1.176 7.84 0.959999 9.152 0.959999C10.576 0.959999 11.856 1.192 12.992 1.656C14.144 2.12 15.112 2.8 15.896 3.696L13.928 5.616C13.272 4.96 12.56 4.48 11.792 4.176C11.04 3.856 10.208 3.696 9.296 3.696C8.416 3.696 7.6 3.84 6.848 4.128C6.096 4.416 5.448 4.824 4.904 5.352C4.36 5.88 3.936 6.504 3.632 7.224C3.344 7.944 3.2 8.736 3.2 9.6C3.2 10.448 3.344 11.232 3.632 11.952C3.936 12.672 4.36 13.304 4.904 13.848C5.448 14.376 6.088 14.784 6.824 15.072C7.56 15.36 8.376 15.504 9.272 15.504C10.104 15.504 10.904 15.376 11.672 15.12C12.456 14.848 13.2 14.4 13.904 13.776L15.68 16.104C14.8 16.808 13.776 17.344 12.608 17.712C11.456 18.064 10.288 18.24 9.104 18.24ZM12.728 15.696V9.408H15.68V16.104L12.728 15.696ZM25.5311 18.168C24.1071 18.168 22.8591 17.888 21.7871 17.328C20.7311 16.752 19.9071 15.968 19.3151 14.976C18.7391 13.984 18.4511 12.856 18.4511 11.592C18.4511 10.312 18.7311 9.184 19.2911 8.208C19.8671 7.216 20.6511 6.44 21.6431 5.88C22.6511 5.32 23.7951 5.04 25.0751 5.04C26.3231 5.04 27.4351 5.312 28.4111 5.856C29.3871 6.4 30.1551 7.168 30.7151 8.16C31.2751 9.152 31.5551 10.32 31.5551 11.664C31.5551 11.792 31.5471 11.936 31.5311 12.096C31.5311 12.256 31.5231 12.408 31.5071 12.552H20.8271V10.56H29.9231L28.7471 11.184C28.7631 10.448 28.6111 9.8 28.2911 9.24C27.9711 8.68 27.5311 8.24 26.9711 7.92C26.4271 7.6 25.7951 7.44 25.0751 7.44C24.3391 7.44 23.6911 7.6 23.1311 7.92C22.5871 8.24 22.1551 8.688 21.8351 9.264C21.5311 9.824 21.3791 10.488 21.3791 11.256V11.736C21.3791 12.504 21.5551 13.184 21.9071 13.776C22.2591 14.368 22.7551 14.824 23.3951 15.144C24.0351 15.464 24.7711 15.624 25.6031 15.624C26.3231 15.624 26.9711 15.512 27.5471 15.288C28.1231 15.064 28.6351 14.712 29.0831 14.232L30.6911 16.08C30.1151 16.752 29.3871 17.272 28.5071 17.64C27.6431 17.992 26.6511 18.168 25.5311 18.168ZM39.2608 18.168C37.8528 18.168 36.7648 17.808 35.9967 17.088C35.2288 16.352 34.8448 15.272 34.8448 13.848V2.352H37.8448V13.776C37.8448 14.384 37.9968 14.856 38.3008 15.192C38.6208 15.528 39.0608 15.696 39.6208 15.696C40.2928 15.696 40.8528 15.52 41.3008 15.168L42.1408 17.304C41.7888 17.592 41.3568 17.808 40.8448 17.952C40.3328 18.096 39.8048 18.168 39.2608 18.168ZM32.7328 7.68V5.28H41.2768V7.68H32.7328Z" fill="url(#paint0_linear_220_115)"/>
<path d="M47.5126 18.24C46.4406 18.24 45.4486 18.032 44.5366 17.616C43.6406 17.2 42.9046 16.6 42.3286 15.816L44.1046 13.68C44.5686 14.32 45.0726 14.8 45.6166 15.12C46.1766 15.44 46.7846 15.6 47.4406 15.6C49.1846 15.6 50.0566 14.568 50.0566 12.504V3.816H44.0806V1.2H53.1766V12.336C53.1766 14.32 52.6886 15.8 51.7126 16.776C50.7526 17.752 49.3526 18.24 47.5126 18.24ZM61.2249 18.168C60.1529 18.168 59.1209 18.032 58.1289 17.76C57.1529 17.472 56.3769 17.128 55.8009 16.728L56.9529 14.448C57.5289 14.816 58.2169 15.12 59.0169 15.36C59.8169 15.6 60.6169 15.72 61.4169 15.72C62.3609 15.72 63.0409 15.592 63.4569 15.336C63.8889 15.08 64.1049 14.736 64.1049 14.304C64.1049 13.952 63.9609 13.688 63.6729 13.512C63.3849 13.32 63.0089 13.176 62.5449 13.08C62.0809 12.984 61.5609 12.896 60.9849 12.816C60.4249 12.736 59.8569 12.632 59.2809 12.504C58.7209 12.36 58.2089 12.16 57.7449 11.904C57.2809 11.632 56.9049 11.272 56.6169 10.824C56.3289 10.376 56.1849 9.784 56.1849 9.048C56.1849 8.232 56.4169 7.528 56.8809 6.936C57.3449 6.328 57.9929 5.864 58.8249 5.544C59.6729 5.208 60.6729 5.04 61.8249 5.04C62.6889 5.04 63.5609 5.136 64.4409 5.328C65.3209 5.52 66.0489 5.792 66.6249 6.144L65.4729 8.424C64.8649 8.056 64.2489 7.808 63.6249 7.68C63.0169 7.536 62.4089 7.464 61.8009 7.464C60.8889 7.464 60.2089 7.6 59.7609 7.872C59.3289 8.144 59.1129 8.488 59.1129 8.904C59.1129 9.288 59.2569 9.576 59.5449 9.768C59.8329 9.96 60.2089 10.112 60.6729 10.224C61.1369 10.336 61.6489 10.432 62.2089 10.512C62.7849 10.576 63.3529 10.68 63.9129 10.824C64.4729 10.968 64.9849 11.168 65.4489 11.424C65.9289 11.664 66.3129 12.008 66.6009 12.456C66.8889 12.904 67.0329 13.488 67.0329 14.208C67.0329 15.008 66.7929 15.704 66.3129 16.296C65.8489 16.888 65.1849 17.352 64.3209 17.688C63.4569 18.008 62.4249 18.168 61.2249 18.168ZM75.3764 18.168C74.0644 18.168 72.8964 17.888 71.8724 17.328C70.8484 16.752 70.0404 15.968 69.4484 14.976C68.8564 13.984 68.5604 12.856 68.5604 11.592C68.5604 10.312 68.8564 9.184 69.4484 8.208C70.0404 7.216 70.8484 6.44 71.8724 5.88C72.8964 5.32 74.0644 5.04 75.3764 5.04C76.7044 5.04 77.8804 5.32 78.9044 5.88C79.9444 6.44 80.7524 7.208 81.3284 8.184C81.9204 9.16 82.2164 10.296 82.2164 11.592C82.2164 12.856 81.9204 13.984 81.3284 14.976C80.7524 15.968 79.9444 16.752 78.9044 17.328C77.8804 17.888 76.7044 18.168 75.3764 18.168ZM75.3764 15.6C76.1124 15.6 76.7684 15.44 77.3444 15.12C77.9204 14.8 78.3684 14.336 78.6884 13.728C79.0244 13.12 79.1924 12.408 79.1924 11.592C79.1924 10.76 79.0244 10.048 78.6884 9.456C78.3684 8.848 77.9204 8.384 77.3444 8.064C76.7684 7.744 76.1204 7.584 75.4004 7.584C74.6644 7.584 74.0084 7.744 73.4324 8.064C72.8724 8.384 72.4244 8.848 72.0884 9.456C71.7524 10.048 71.5844 10.76 71.5844 11.592C71.5844 12.408 71.7524 13.12 72.0884 13.728C72.4244 14.336 72.8724 14.8 73.4324 15.12C74.0084 15.44 74.6564 15.6 75.3764 15.6ZM92.3572 5.04C93.3812 5.04 94.2932 5.24 95.0932 5.64C95.9092 6.04 96.5492 6.656 97.0132 7.488C97.4772 8.304 97.7092 9.36 97.7092 10.656V18H94.7092V11.04C94.7092 9.904 94.4372 9.056 93.8932 8.496C93.3652 7.936 92.6212 7.656 91.6612 7.656C90.9572 7.656 90.3332 7.8 89.7892 8.088C89.2452 8.376 88.8212 8.808 88.5172 9.384C88.2292 9.944 88.0852 10.656 88.0852 11.52V18H85.0852V5.184H87.9412V8.64L87.4372 7.584C87.8852 6.768 88.5332 6.144 89.3812 5.712C90.2452 5.264 91.2372 5.04 92.3572 5.04Z" fill="url(#paint1_linear_220_115)"/>
<defs>
<linearGradient id="paint0_linear_220_115" x1="52.8115" y1="18.3333" x2="53.9631" y2="2.0816" gradientUnits="userSpaceOnUse">
<stop stop-color="#7C7B90"/>
<stop offset="0.601239" stop-color="#51506D"/>
<stop offset="0.977585" stop-color="#323352"/>
</linearGradient>
<linearGradient id="paint1_linear_220_115" x1="-0.999999" y1="25" x2="60.9802" y2="-42.7151" gradientUnits="userSpaceOnUse">
<stop stop-color="#764BA2"/>
<stop offset="1" stop-color="#667EEA"/>
</linearGradient>
</defs>
</svg>
