<svg width="26" height="29" viewBox="0 0 26 29" fill="none" xmlns="http://www.w3.org/2000/svg">
<path d="M13 0C5.7117 0 0 3.27766 0 7.46808V20.7447C0 24.9351 5.7117 28.2128 13 28.2128C20.2883 28.2128 26 24.9351 26 20.7447V7.46808C26 3.27766 20.2883 0 13 0ZM13 1.65957C19.1404 1.65957 24.3404 4.31489 24.3404 7.46808C24.3404 10.6213 19.1404 13.2766 13 13.2766C6.85957 13.2766 1.65957 10.6213 1.65957 7.46808C1.65957 4.31489 6.85957 1.65957 13 1.65957ZM24.3404 20.7447C24.3404 23.8979 19.1404 26.5532 13 26.5532C6.85957 26.5532 1.65957 23.8979 1.65957 20.7447V17.8128C3.87234 20.0809 8.0766 21.5745 13 21.5745C17.9234 21.5745 22.1277 20.0809 24.3404 17.8128V20.7447ZM24.3404 14.1064C24.3404 17.2596 19.1404 19.9149 13 19.9149C6.85957 19.9149 1.65957 17.2596 1.65957 14.1064V11.1745C3.87234 13.4426 8.0766 14.9362 13 14.9362C17.9234 14.9362 22.1277 13.4426 24.3404 11.1745V14.1064Z" fill="#F7FAFC"/>
</svg>
