<svg width="36" height="32" viewBox="0 0 36 32" fill="none" xmlns="http://www.w3.org/2000/svg">
<g clip-path="url(#clip0_244_124)" filter="url(#filter0_d_244_124)">
<path d="M20.9999 27H28.9999C29.9884 27 30.8284 26.777 31.5259 26.3885L20.9999 20.1095V27ZM33.8299 23.105C33.9439 22.5965 34.0019 22.058 34.0019 21.4995V18.9995H26.9469L33.8279 23.105H33.8299ZM2.17494 8.8795C2.05644 9.41146 1.99774 9.955 1.99994 10.5V13H9.08194L2.17494 8.8795ZM14.9999 5H6.99994C6.01844 5 5.18394 5.22 4.48944 5.603L14.9999 11.873V5ZM4.52144 26.413C5.20944 26.785 6.03294 27 6.99994 27H14.9999V20.162L4.52144 26.413ZM1.99994 19V21.5C1.99994 22.0755 2.06094 22.63 2.18144 23.1515L9.14094 19H1.99994ZM31.5574 5.6275C30.8544 5.2285 30.0029 5 28.9999 5H20.9999V11.9255L31.5574 5.6275ZM33.9999 13V10.5C33.9999 9.953 33.9434 9.4255 33.8339 8.9265L27.0059 13H33.9999Z" fill="#2E3192"/>
<path d="M27.006 13L33.834 8.9265C33.521 7.4945 32.759 6.309 31.5575 5.6275L21 11.9255V5H20V14H34V13H27.006ZM2 18V19H9.141L2.1815 23.1515C2.512 24.579 3.297 25.751 4.5215 26.413L15 20.162V27H16V18H2ZM34 18H20V27H21V20.1095L31.526 26.389C32.7365 25.715 33.508 24.536 33.828 23.106L26.947 19H34V18ZM15 5V11.873L4.4895 5.603C3.2745 6.273 2.498 7.45 2.1745 8.8795L9.082 13H2V14H16V5H15Z" fill="#E6E7E8"/>
<path d="M20 14V5H16V14H2V18H16V27H20V18H34V14H20Z" fill="#BE1E2D"/>
<path d="M12.969 13L2.94398 7.0155C2.72848 7.3355 2.55548 7.6875 2.41248 8.0625L10.686 13H12.9675H12.969ZM33.545 24.045L25.1385 19H22.8105L32.967 25.1095C33.2025 24.7804 33.3966 24.4235 33.545 24.047V24.045ZM32.3595 6.1955L20.9845 13L23.294 13.0015L33.1095 7.125C32.8905 6.7265 32.6595 6.4695 32.3595 6.1955ZM2.90648 24.9375C3.13139 25.28 3.40206 25.5902 3.71098 25.8595L15.0315 19H12.75L2.90648 24.9375Z" fill="#BE1E2D"/>
</g>
<defs>
<filter id="filter0_d_244_124" x="0" y="0" width="36" height="36" filterUnits="userSpaceOnUse" color-interpolation-filters="sRGB">
<feFlood flood-opacity="0" result="BackgroundImageFix"/>
<feColorMatrix in="SourceAlpha" type="matrix" values="0 0 0 0 0 0 0 0 0 0 0 0 0 0 0 0 0 0 127 0" result="hardAlpha"/>
<feOffset dy="2"/>
<feGaussianBlur stdDeviation="1"/>
<feComposite in2="hardAlpha" operator="out"/>
<feColorMatrix type="matrix" values="0 0 0 0 0 0 0 0 0 0 0 0 0 0 0 0 0 0 0.1 0"/>
<feBlend mode="normal" in2="BackgroundImageFix" result="effect1_dropShadow_244_124"/>
<feBlend mode="normal" in="SourceGraphic" in2="effect1_dropShadow_244_124" result="shape"/>
</filter>
<clipPath id="clip0_244_124">
<rect width="32" height="32" fill="white" transform="translate(2)"/>
</clipPath>
</defs>
</svg>
