<svg width="20" height="20" viewBox="0 0 20 20" fill="none" xmlns="http://www.w3.org/2000/svg">
<g clip-path="url(#clip0_65_463)">
<path d="M3.92128 0.00500011C1.76694 0.00500011 0.0037384 1.76816 0.0037384 3.92254V16.0794C0.0037384 18.2337 1.7669 19.9963 3.92128 19.9963H16.0781C18.2325 19.9963 19.995 18.2337 19.995 16.0794V3.92254C19.995 1.7682 18.2325 0.00500011 16.0781 0.00500011H3.92128ZM4.9066 3.30396C5.93956 3.30396 6.57582 3.98208 6.59546 4.87346C6.59546 5.74516 5.93952 6.44234 4.88662 6.44234H4.86724C3.85394 6.44234 3.199 5.7452 3.199 4.87346C3.199 3.9821 3.87376 3.30396 4.90658 3.30396H4.9066ZM13.8082 7.47016C15.7948 7.47016 17.284 8.7686 17.284 11.5589V16.7679H14.2649V11.9081C14.2649 10.6869 13.828 9.85376 12.7354 9.85376C11.9013 9.85376 11.4042 10.4153 11.1859 10.9578C11.1062 11.1519 11.0866 11.4229 11.0866 11.6944V16.7679H8.0675C8.0675 16.7679 8.10712 8.5356 8.0675 7.6832H11.0872V8.96968C11.4884 8.35068 12.206 7.47014 13.8082 7.47014V7.47016ZM3.37708 7.68386H6.39614V16.7679H3.37708V7.68386Z" fill="white"/>
</g>
<defs>
<clipPath id="clip0_65_463">
<rect width="20" height="20" fill="white"/>
</clipPath>
</defs>
</svg>
