<svg width="12" height="14" viewBox="0 0 12 14" fill="none" xmlns="http://www.w3.org/2000/svg">
<path fill-rule="evenodd" clip-rule="evenodd" d="M8.62606 1.26018C8.43489 0.697435 7.9383 0.333252 7.37592 0.333252H4.62395L4.51933 0.337473C3.96613 0.382247 3.49408 0.779229 3.3487 1.3368L3.18362 2.17867L3.16428 2.25278C3.08523 2.49277 2.86424 2.65934 2.61181 2.65934L2.61181 2.65934H0.487593L0.42143 2.6639C0.183435 2.69701 0 2.90622 0 3.15936C0 3.43551 0.218303 3.65937 0.487593 3.65937L2.61181 3.65937H9.38806L11.5124 3.65937L11.5786 3.65481C11.8166 3.6217 12 3.4125 12 3.15936C12 2.8832 11.7817 2.65934 11.5124 2.65934H9.38854C9.38838 2.65934 9.38822 2.65934 9.38806 2.65934L9.31338 2.65443C9.06835 2.62205 8.8658 2.4324 8.81621 2.17847L8.65827 1.36798L8.62606 1.26018ZM7.94289 2.65934C7.92069 2.60289 7.90149 2.54473 7.8855 2.48504L7.85997 2.37464L7.70908 1.59512C7.67381 1.45986 7.5649 1.36084 7.43348 1.3382L7.37592 1.33329H4.62395C4.48714 1.33329 4.36553 1.4154 4.31501 1.5186L4.29788 1.56394L4.13986 2.37484C4.12058 2.47357 4.09266 2.56866 4.057 2.65934H7.94289ZM10.6523 4.81337C10.8983 4.83371 11.0869 5.03802 11.1 5.28395L11.0937 5.42108L10.884 7.98857L10.6641 10.4942C10.6175 10.9944 10.5759 11.4162 10.5399 11.7484C10.415 12.9058 9.66366 13.6215 8.53107 13.6427C6.76625 13.6753 5.06985 13.6749 3.42248 13.6393C2.32265 13.6162 1.58244 12.8928 1.4597 11.753L1.37487 10.9134L1.22663 9.2846L1.07477 7.4973L0.901145 5.35184C0.879566 5.07657 1.07967 4.83549 1.3481 4.81336C1.59415 4.79307 1.8122 4.96381 1.86346 5.20443L1.88341 5.40107L2.04644 7.4124L2.22446 9.49717C2.30431 10.3997 2.37356 11.13 2.42897 11.6431C2.49892 12.2926 2.84092 12.6268 3.44274 12.6395C5.07723 12.6748 6.76099 12.6752 8.5134 12.6428C9.1518 12.6308 9.49923 12.2999 9.57067 11.6382L9.65513 10.803C9.67986 10.5456 9.70628 10.2614 9.73423 9.95278L9.91243 7.90245L10.1271 5.27158C10.1469 5.01926 10.3461 4.82585 10.586 4.81246L10.6523 4.81337Z" fill="#CBD5E0"/>
</svg>
