<svg width="12" height="14" viewBox="0 0 12 14" fill="none" xmlns="http://www.w3.org/2000/svg">
<path fill-rule="evenodd" clip-rule="evenodd" d="M8.62606 1.26027C8.43489 0.697527 7.9383 0.333344 7.37592 0.333344H4.62395L4.51933 0.337564C3.96613 0.382339 3.49408 0.779321 3.3487 1.33689L3.18362 2.17876L3.16428 2.25287C3.08523 2.49286 2.86424 2.65943 2.61181 2.65943L2.61181 2.65943H0.487593L0.42143 2.66399C0.183435 2.6971 0 2.90631 0 3.15945C0 3.4356 0.218303 3.65947 0.487593 3.65947L2.61181 3.65947H9.38806L11.5124 3.65947L11.5786 3.6549C11.8166 3.62179 12 3.41259 12 3.15945C12 2.88329 11.7817 2.65943 11.5124 2.65943H9.38854C9.38838 2.65943 9.38822 2.65943 9.38806 2.65943L9.31338 2.65452C9.06835 2.62214 8.8658 2.43249 8.81621 2.17856L8.65827 1.36807L8.62606 1.26027ZM7.94289 2.65943C7.92069 2.60298 7.90149 2.54482 7.8855 2.48513L7.85997 2.37473L7.70908 1.59521C7.67381 1.45995 7.5649 1.36093 7.43348 1.33829L7.37592 1.33338H4.62395C4.48714 1.33338 4.36553 1.41549 4.31501 1.51869L4.29788 1.56404L4.13986 2.37493C4.12058 2.47367 4.09266 2.56875 4.057 2.65943H7.94289ZM10.6523 4.81346C10.8983 4.8338 11.0869 5.03811 11.1 5.28405L11.0937 5.42117L10.884 7.98866L10.6641 10.4942C10.6175 10.9944 10.5759 11.4163 10.5399 11.7484C10.415 12.9059 9.66366 13.6216 8.53107 13.6427C6.76625 13.6754 5.06985 13.675 3.42248 13.6394C2.32265 13.6163 1.58244 12.8928 1.4597 11.7531L1.37487 10.9134L1.22663 9.28469L1.07477 7.49739L0.901145 5.35193C0.879566 5.07666 1.07967 4.83558 1.3481 4.81345C1.59415 4.79316 1.8122 4.9639 1.86346 5.20452L1.88341 5.40116L2.04644 7.41249L2.22446 9.49726C2.30431 10.3998 2.37356 11.1301 2.42897 11.6432C2.49892 12.2927 2.84092 12.6269 3.44274 12.6396C5.07723 12.6749 6.76099 12.6753 8.5134 12.6429C9.1518 12.6309 9.49923 12.3 9.57067 11.6382L9.65513 10.8031C9.67986 10.5457 9.70628 10.2615 9.73423 9.95287L9.91243 7.90254L10.1271 5.27168C10.1469 5.01936 10.3461 4.82594 10.586 4.81256L10.6523 4.81346Z" fill="#171923"/>
</svg>
