<svg width="18" height="18" viewBox="0 0 18 18" fill="none" xmlns="http://www.w3.org/2000/svg">
<path d="M5.66667 0.875061C3.0203 0.875061 0.875 3.02036 0.875 5.66673V6.50006C0.875 6.84524 1.15482 7.12506 1.5 7.12506C1.84518 7.12506 2.125 6.84524 2.125 6.50006V5.66673C2.125 3.71072 3.71066 2.12506 5.66667 2.12506H6.5C6.84518 2.12506 7.125 1.84524 7.125 1.50006C7.125 1.15488 6.84518 0.875061 6.5 0.875061H5.66667Z" fill="#2D3748"/>
<path d="M11.5 0.875061C11.1548 0.875061 10.875 1.15488 10.875 1.50006C10.875 1.84524 11.1548 2.12506 11.5 2.12506H12.3333C14.2893 2.12506 15.875 3.71072 15.875 5.66673V6.50006C15.875 6.84524 16.1548 7.12506 16.5 7.12506C16.8452 7.12506 17.125 6.84524 17.125 6.50006V5.66673C17.125 3.02036 14.9797 0.875061 12.3333 0.875061H11.5Z" fill="#2D3748"/>
<path d="M4 8.37506C3.65482 8.37506 3.375 8.65488 3.375 9.00006C3.375 9.34524 3.65482 9.62506 4 9.62506H14C14.3452 9.62506 14.625 9.34524 14.625 9.00006C14.625 8.65488 14.3452 8.37506 14 8.37506H4Z" fill="#2D3748"/>
<path d="M2.125 11.5001C2.125 11.1549 1.84518 10.8751 1.5 10.8751C1.15482 10.8751 0.875 11.1549 0.875 11.5001V12.3334C0.875 14.9798 3.0203 17.1251 5.66667 17.1251H6.5C6.84518 17.1251 7.125 16.8452 7.125 16.5001C7.125 16.1549 6.84518 15.8751 6.5 15.8751H5.66667C3.71066 15.8751 2.125 14.2894 2.125 12.3334V11.5001Z" fill="#2D3748"/>
<path d="M17.125 11.5001C17.125 11.1549 16.8452 10.8751 16.5 10.8751C16.1548 10.8751 15.875 11.1549 15.875 11.5001V12.3334C15.875 14.2894 14.2893 15.8751 12.3333 15.8751H11.5C11.1548 15.8751 10.875 16.1549 10.875 16.5001C10.875 16.8452 11.1548 17.1251 11.5 17.1251H12.3333C14.9797 17.1251 17.125 14.9798 17.125 12.3334V11.5001Z" fill="#2D3748"/>
</svg>
