<svg width="18" height="18" viewBox="0 0 18 18" fill="none" xmlns="http://www.w3.org/2000/svg">
<path d="M5.66667 0.875C3.0203 0.875 0.875 3.0203 0.875 5.66667V6.5C0.875 6.84518 1.15482 7.125 1.5 7.125C1.84518 7.125 2.125 6.84518 2.125 6.5V5.66667C2.125 3.71066 3.71066 2.125 5.66667 2.125H6.5C6.84518 2.125 7.125 1.84518 7.125 1.5C7.125 1.15482 6.84518 0.875 6.5 0.875H5.66667Z" fill="#CBD5E0"/>
<path d="M11.5 0.875C11.1548 0.875 10.875 1.15482 10.875 1.5C10.875 1.84518 11.1548 2.125 11.5 2.125H12.3333C14.2893 2.125 15.875 3.71066 15.875 5.66667V6.5C15.875 6.84518 16.1548 7.125 16.5 7.125C16.8452 7.125 17.125 6.84518 17.125 6.5V5.66667C17.125 3.0203 14.9797 0.875 12.3333 0.875H11.5Z" fill="#CBD5E0"/>
<path d="M4 8.375C3.65482 8.375 3.375 8.65482 3.375 9C3.375 9.34518 3.65482 9.625 4 9.625H14C14.3452 9.625 14.625 9.34518 14.625 9C14.625 8.65482 14.3452 8.375 14 8.375H4Z" fill="#CBD5E0"/>
<path d="M2.125 11.5C2.125 11.1548 1.84518 10.875 1.5 10.875C1.15482 10.875 0.875 11.1548 0.875 11.5V12.3333C0.875 14.9797 3.0203 17.125 5.66667 17.125H6.5C6.84518 17.125 7.125 16.8452 7.125 16.5C7.125 16.1548 6.84518 15.875 6.5 15.875H5.66667C3.71066 15.875 2.125 14.2893 2.125 12.3333V11.5Z" fill="#CBD5E0"/>
<path d="M17.125 11.5C17.125 11.1548 16.8452 10.875 16.5 10.875C16.1548 10.875 15.875 11.1548 15.875 11.5V12.3333C15.875 14.2893 14.2893 15.875 12.3333 15.875H11.5C11.1548 15.875 10.875 16.1548 10.875 16.5C10.875 16.8452 11.1548 17.125 11.5 17.125H12.3333C14.9797 17.125 17.125 14.9797 17.125 12.3333V11.5Z" fill="#CBD5E0"/>
</svg>
